<svg xmlns="http://www.w3.org/2000/svg" width="504" height="482" viewBox="0 0 504 482" fill="none"><path d="M302.751 465.717C303.931 465.082 307.288 464.265 310.283 463.811C313.277 463.358 318.178 462.995 321.172 462.995C324.167 462.995 329.067 463.267 332.061 463.63C335.056 463.993 336.871 464.537 336.145 464.81C335.419 465.173 328.885 465.808 321.626 466.352C314.366 466.987 306.744 467.623 304.657 467.804C302.479 468.076 300.755 467.986 300.755 467.532C300.755 467.169 301.662 466.352 302.751 465.717Z" fill="#033165"></path><path d="M51.6617 459.546C55.2007 458.639 60.9176 457.641 64.3659 457.278C67.9049 456.915 72.9866 456.824 75.7089 457.096C78.4312 457.278 83.7852 457.913 87.5057 458.367C91.2262 458.911 103.658 461.089 115.183 463.267C126.707 465.445 140.5 467.713 146.036 468.258C151.571 468.802 159.103 469.528 162.823 469.982C166.544 470.436 177.161 470.708 186.417 470.708C197.578 470.708 208.105 470.163 217.724 468.984C227.07 467.804 238.322 467.169 249.484 467.078C262.642 466.987 267.724 467.35 270.809 468.348C273.985 469.437 274.802 470.073 274.62 471.525C274.439 472.432 274.166 473.339 274.166 473.521C274.076 473.702 271.716 473.158 268.994 472.341C266.272 471.615 260.555 470.708 256.29 470.436C250.936 470.073 242.406 470.617 228.159 472.16C216.907 473.43 202.025 474.701 195.037 475.064C188.05 475.336 175.165 475.154 166.453 474.701C157.742 474.156 146.852 473.158 142.406 472.432C137.959 471.615 128.794 469.437 122.17 467.35C112.46 464.446 107.923 463.539 98.2135 462.813C91.5891 462.359 82.8777 461.452 78.885 460.907C74.4385 460.272 67.6327 460.091 61.1899 460.454C55.473 460.726 49.3024 461.27 47.5782 461.543C45.8541 461.906 44.5837 461.906 44.8559 461.633C45.1281 461.361 48.2134 460.363 51.6617 459.546Z" fill="#033165"></path><path d="M311.644 456.552C312.914 455.826 315.364 454.918 317.088 454.555C318.813 454.102 327.161 454.011 335.691 454.192C346.217 454.464 352.388 455.009 355.201 455.916C357.47 456.733 358.286 457.187 357.016 456.915C355.746 456.733 352.751 456.279 350.21 456.007C347.669 455.644 338.776 456.007 330.246 456.915C321.716 457.731 313.549 458.276 309.375 457.822L311.644 456.552Z" fill="#033165"></path><path d="M170.083 392.665C167.361 392.847 162.46 392.847 159.194 392.665C155.927 392.484 158.195 392.393 164.185 392.393C170.174 392.393 172.805 392.484 170.083 392.665Z" fill="#B1BCCD"></path><path d="M83.8759 286.037C84.3297 279.957 84.8741 274.058 84.8741 272.969V272.878C84.9649 271.063 85.0556 271.063 85.4186 272.697C85.6908 273.695 85.3279 279.684 84.6926 286.037C83.9667 292.389 83.3315 297.471 83.15 297.38C82.9685 297.289 83.3315 292.208 83.8759 286.037Z" fill="#033165"></path><path d="M108.558 267.161C109.012 266.98 109.284 265.255 109.284 263.44V263.35C109.284 261.535 109.466 260.264 109.829 260.627C110.192 260.9 110.101 264.166 109.647 267.887C109.284 271.517 108.74 273.604 108.649 272.424C108.468 271.063 107.651 270.337 105.927 270.065C104.475 269.793 99.3025 269.339 94.3116 269.067C87.3243 268.613 85.0557 268.794 84.6019 269.702C84.0575 270.609 83.876 270.609 83.876 269.52C83.876 268.794 84.5112 267.433 85.4186 266.617C86.8705 265.165 87.8687 265.165 97.4876 266.254C103.204 266.889 108.195 267.342 108.558 267.161Z" fill="#033165"></path><path d="M96.5804 195.289C98.0323 189.209 99.3935 181.495 99.3935 178.138L99.5749 171.967L100.301 178.047C101.027 183.673 100.845 185.125 97.9415 195.108C96.2174 201.097 94.7655 206.27 94.7655 206.633C94.7655 207.086 94.584 207.177 94.3118 206.905C94.0395 206.633 95.0377 201.46 96.5804 195.289Z" fill="#033165"></path><path d="M110.192 163.255C106.199 163.164 106.199 163.074 112.007 161.985C115.273 161.349 118.631 160.805 119.448 160.714C120.355 160.714 121.081 160.896 121.081 161.349C121.081 161.712 119.538 162.257 117.723 162.62C115.818 162.983 112.46 163.255 110.192 163.255Z" fill="#033165"></path><path d="M313.459 156.086L322.352 155.814H322.261C327.161 155.632 336.961 155.451 357.016 155.179V157.447C357.016 159.534 356.653 159.716 352.932 159.716C350.664 159.716 348.849 160.079 348.849 160.623C348.849 161.168 350.301 169.789 352.025 179.953C353.749 190.026 355.383 199.917 355.655 201.914C355.927 204.273 355.473 203.275 354.384 199.191C353.386 195.743 350.755 185.67 348.395 176.958C346.127 168.246 344.13 160.986 344.04 160.805C343.949 160.623 338.686 162.166 332.243 164.163C325.891 166.25 320.355 167.702 319.811 167.43C319.266 167.157 317.633 164.526 313.459 156.086Z" fill="#033165"></path><path d="M153.749 152.093C157.469 151.367 161.553 150.55 162.823 150.369C164.094 150.097 169.72 149.915 175.255 149.824C182.968 149.734 185.509 150.006 185.509 150.913C185.509 151.73 181.97 152.184 172.624 152.728C165.455 153.091 157.651 153.817 155.11 154.271C152.66 154.815 149.393 155.723 147.941 156.358C145.763 157.265 145.491 157.81 146.489 162.438H139.683C135.418 162.438 131.879 162.982 130.155 163.799C128.613 164.525 127.251 165.069 126.979 164.979C126.707 164.797 128.431 163.436 130.79 161.803C133.15 160.169 137.778 157.719 141.045 156.267C144.311 154.815 150.028 152.91 153.749 152.093Z" fill="#033165"></path><path d="M448.849 446.932L451.208 442.123L453.568 437.222L456.108 439.854C457.56 441.215 459.103 443.393 459.647 444.663C460.373 446.388 460.283 447.567 459.284 449.654C458.559 451.106 457.288 452.921 456.471 453.556C455.292 454.464 454.838 454.282 454.021 452.649C453.477 451.469 452.025 449.745 448.849 446.932Z" fill="#FEFEFE"></path><path d="M143.313 437.948L150.573 437.404C154.566 437.132 159.012 436.769 160.555 436.769C163.186 436.678 163.186 436.678 161.008 437.404C159.738 437.767 155.291 438.13 143.313 437.948Z" fill="#B1BCCD"></path><path d="M247.215 351.375C236.871 348.834 233.059 347.564 232.696 346.475C232.333 345.114 233.241 345.204 239.502 347.201C243.495 348.471 250.392 350.558 254.747 351.919C259.194 353.281 262.461 354.46 262.007 354.551C261.644 354.732 254.929 353.281 247.215 351.375Z" fill="#033165"></path><path d="M299.665 345.93C299.575 343.026 299.847 340.304 300.301 340.032C300.754 339.669 301.662 339.487 302.478 339.487C303.658 339.578 303.567 339.669 302.297 339.941C301.026 340.213 300.754 341.211 300.936 346.111C301.117 349.287 300.936 351.738 300.482 351.556C300.119 351.375 299.756 348.834 299.665 345.93Z" fill="#B1BCCD"></path><path d="M306.653 339.759C309.647 339.487 312.914 338.67 313.912 338.035C314.911 337.309 316.09 336.765 316.544 336.765C316.998 336.674 317.905 338.489 319.811 344.841L316 345.748C313.822 346.293 310.101 347.563 307.56 348.561L307.56 348.562C305.019 349.56 302.479 350.558 301.843 350.83C301.027 351.102 300.755 349.741 300.755 345.748C300.755 342.754 300.845 340.304 300.936 340.304C301.118 340.213 303.658 340.031 306.653 339.759Z" fill="#FEFEFE"></path><path d="M279.248 349.197C278.522 340.576 278.522 340.485 280.791 338.58C282.061 337.581 283.604 336.765 284.148 336.674C284.784 336.674 286.145 337.672 287.143 338.943C288.504 340.667 289.865 341.211 295.764 341.211L298.486 352.917L292.678 355.912C289.412 357.545 285.51 358.906 283.876 358.906C282.243 358.906 280.7 358.725 280.519 358.453C280.246 358.18 279.702 354.097 279.248 349.197Z" fill="#FEFEFE"></path><path d="M198.304 338.942C197.397 336.946 196.399 334.315 196.127 333.044C195.764 331.774 196.308 332.409 197.216 334.405C198.123 336.402 199.212 339.033 199.484 340.304C199.756 341.574 199.303 340.939 198.304 338.942Z" fill="#033165"></path><path fill-rule="evenodd" clip-rule="evenodd" d="M270.809 135.849C275.074 136.122 282.243 137.301 286.689 138.39C291.136 139.479 296.399 141.294 301.662 144.289V141.385C301.753 139.207 301.934 138.753 302.479 139.752C302.932 140.477 303.931 151.367 304.747 163.8C305.564 176.323 306.199 187.576 306.199 191.478L300.029 187.576C296.671 185.398 292.497 182.857 290.773 181.949C289.048 181.132 287.506 180.225 287.324 180.043C287.234 179.862 287.324 179.318 287.597 178.773C287.869 178.319 290.591 179.59 293.676 181.677C296.853 183.764 300.301 186.305 301.39 187.394C302.569 188.392 303.568 189.028 303.749 188.755C303.931 188.483 303.931 185.125 303.477 174.236L295.038 173.963C287.324 173.782 286.145 173.963 278.976 176.867C274.711 178.592 270.718 180.497 270.083 180.951C269.176 181.768 269.085 184.399 270.355 204.092L275.346 204.636C277.245 204.889 279.232 205.098 280.506 205.232L280.507 205.232L280.508 205.233L280.508 205.233L280.512 205.233C281.062 205.291 281.479 205.335 281.698 205.362C282.878 205.544 283.059 203.366 283.241 191.296C283.422 182.131 283.876 177.14 284.421 177.412C284.965 177.684 285.328 186.759 285.328 201.914C285.328 222.513 285.509 226.053 286.689 226.416C287.415 226.688 290.228 226.869 297.578 226.869L307.379 240.028C312.733 247.288 317.451 253.186 317.996 253.186C318.54 253.186 318.722 252.097 318.45 250.736C318.268 249.284 317.633 241.661 316.998 233.675C316.453 225.69 316.181 218.611 316.544 218.067C316.816 217.432 316.635 214.981 316.181 212.622C315.637 210.172 315.364 208.175 315.455 207.994C315.637 207.903 317.633 210.898 319.902 214.8C323.713 221.152 324.257 222.786 326.254 239.12L341.771 253.186C346.84 257.77 352.743 263.156 357.707 267.685C361.096 270.777 364.048 273.471 366 275.238C370.809 279.684 375.981 285.039 377.433 287.307C378.885 289.576 380.428 291.391 380.791 291.3C381.245 291.3 381.517 290.756 381.517 290.211C381.517 289.576 378.069 281.227 373.804 271.789C369.539 262.352 365.637 254.457 365.183 254.366C364.638 254.184 364.275 253.368 364.275 252.551C364.275 251.643 363.731 249.465 363.005 247.741C362.188 246.017 361.916 244.202 362.279 243.839C362.642 243.385 362.188 243.295 361.281 243.567C360.192 243.93 359.92 244.747 360.283 246.199C360.467 247.12 360.558 247.574 360.46 247.619C360.365 247.663 360.093 247.322 359.557 246.653L359.557 246.652C358.921 245.745 357.833 245.11 357.197 245.019C356.562 245.019 356.199 244.021 356.29 242.387C356.471 240.935 356.744 239.846 357.016 240.028C357.063 240.059 357.136 240.069 357.241 240.051L357.47 240.481C357.804 240.131 358.11 239.811 358.388 239.514C359.102 239.09 360.143 238.389 361.644 237.305L360.192 229.592C359.375 225.327 358.559 221.697 358.286 221.424C358.014 221.152 356.108 221.152 354.021 221.243C351.934 221.424 349.666 221.878 349.03 222.15C348.123 222.604 348.94 224.873 352.116 230.953C354.384 235.4 355.927 238.757 355.382 238.213C354.929 237.668 351.934 232.586 348.94 226.869C345.854 221.152 343.404 216.433 343.404 216.433C343.404 216.433 349.666 216.524 357.197 216.706C364.82 216.887 371.263 217.159 371.535 217.432C371.807 217.613 371.081 218.521 369.992 219.337C368.268 220.789 367.996 222.06 367.724 229.138C367.451 236.035 367.633 237.215 368.813 237.033C369.539 236.852 371.989 236.489 374.257 236.216C377.07 235.944 379.974 236.398 383.332 237.668C386.054 238.667 388.958 240.209 389.684 241.026C390.41 241.933 391.045 243.476 391.045 244.474C391.136 245.563 390.591 247.651 389.956 249.102C388.958 251.643 389.049 251.916 391.045 253.005C392.315 253.549 393.586 255.183 393.858 256.635C394.13 257.996 394.13 259.811 393.858 260.718C393.495 261.807 393.858 262.442 395.128 262.715C396.127 262.987 397.397 263.985 397.851 264.983C398.577 266.435 399.121 266.617 400.573 265.891C401.571 265.346 403.205 264.983 404.203 264.983C405.201 264.983 407.379 264.076 408.922 262.987C411.372 261.444 412.733 261.172 416 261.626C419.448 262.079 420.718 262.896 423.894 266.526C427.07 270.065 427.796 271.517 427.796 274.512C427.796 276.508 427.161 279.049 426.435 280.229C425.255 282.044 425.255 282.498 426.526 284.766C427.615 286.491 427.887 288.305 427.433 291.119C426.98 294.023 427.161 295.021 428.25 295.384C428.976 295.656 429.611 296.473 429.611 297.199C429.611 297.925 430.065 298.56 430.519 298.56C430.972 298.56 431.608 297.108 431.88 295.384C432.152 293.297 433.241 291.572 434.784 290.393C436.236 289.304 438.232 288.487 439.321 288.578C440.5 288.578 442.406 289.576 443.677 290.846C445.128 292.298 446.943 293.115 448.667 293.115C450.119 293.115 452.025 293.75 452.751 294.476C453.477 295.202 454.112 296.201 454.112 296.745C454.112 297.29 455.11 298.016 456.381 298.56C457.651 299.104 458.831 300.193 459.103 301.101C459.285 301.918 460.555 303.188 461.825 303.823C463.822 304.822 464.185 304.731 465.001 303.097C465.455 302.099 467.451 300.647 469.357 299.83C471.263 298.923 474.62 298.378 477.252 298.469C479.793 298.56 482.334 299.195 482.969 299.74C483.604 300.375 484.148 301.736 484.058 302.916C484.058 304.731 484.511 304.912 488.141 304.912C490.41 304.912 493.495 305.638 494.947 306.546C496.49 307.363 497.669 308.361 497.669 308.814C497.669 309.177 498.214 309.994 498.849 310.629C499.484 311.355 503.568 312.081 509.012 312.444C514.003 312.807 520.174 313.443 527.161 314.35L521.263 314.985C517.996 315.348 488.776 315.893 456.381 316.256C423.894 316.619 394.947 317.073 391.952 317.163L391.373 317.181C388.251 317.276 382.666 317.447 372.442 317.617L371.353 321.065C370.809 322.88 369.357 325.966 368.177 327.872C367.088 329.686 363.096 334.315 352.932 345.023L353.568 349.651C353.931 352.283 355.292 357.002 356.562 360.268C358.649 365.713 358.74 366.712 357.923 373.427C357.379 377.42 357.016 381.231 357.016 381.866C357.016 382.592 355.836 382.411 353.205 381.05C350.029 379.507 348.94 379.325 347.306 380.142C346.127 380.687 343.495 382.683 341.499 384.589C339.411 386.404 336.78 389.58 335.691 391.576C334.511 393.573 332.878 397.293 332.061 399.744C331.245 402.285 330.065 410.18 329.339 417.439C328.704 424.699 328.25 432.05 328.341 433.774C328.431 435.952 329.067 437.313 330.246 437.948C331.245 438.584 334.33 439.4 337.052 439.945C339.774 440.489 346.762 441.125 352.479 441.488C358.196 441.76 364.457 442.304 366.362 442.667C368.177 443.03 369.72 443.484 369.72 443.756C369.72 444.029 367.633 444.664 365.001 445.299C362.37 445.934 358.196 446.66 351.117 447.658L366.998 452.014C375.709 454.465 386.326 456.915 390.591 457.459C396.308 458.276 400.482 458.276 406.471 457.55C411.009 457.005 419.176 455.1 424.62 453.466C430.065 451.742 436.417 449.383 438.686 448.294C442.588 446.388 442.678 446.207 440.954 445.027C439.23 443.756 439.321 443.756 441.862 444.301C444.221 444.755 444.947 444.392 447.125 441.851C449.121 439.491 449.575 438.221 449.121 436.496C448.758 435.226 447.669 433.23 446.671 431.959C445.673 430.689 443.132 428.601 441.136 427.24C439.049 425.788 437.96 424.699 438.686 424.699C439.412 424.699 442.043 425.879 444.584 427.24C447.034 428.601 449.938 430.961 450.936 432.504C451.934 434.046 454.294 436.043 456.29 437.041C458.196 437.948 460.736 439.854 461.916 441.306C463.096 442.667 464.094 444.664 464.094 445.844C464.094 446.932 463.277 449.473 462.461 451.47C461.553 453.466 457.56 458.367 453.568 462.36C449.666 466.353 445.128 470.527 443.677 471.616C442.134 472.705 438.141 474.611 434.602 475.79C431.063 477.061 424.62 478.785 420.083 479.602C415.092 480.6 407.833 481.235 401.48 481.235C393.041 481.235 388.595 480.691 378.341 478.422C368.54 476.153 363.64 474.52 357.197 471.162C352.479 468.803 349.03 466.806 349.484 466.625C349.847 466.443 353.931 467.169 358.377 468.258C362.823 469.347 369.629 471.253 373.35 472.433C377.07 473.612 384.058 475.246 388.776 476.062C394.947 477.061 399.575 477.333 405.11 476.879C409.375 476.516 416.726 475.246 421.444 473.975C426.163 472.796 431.063 471.162 434.602 469.075L432.333 469.529C431.535 469.7 429.734 470.014 427.627 470.382L427.623 470.382C426.378 470.6 425.027 470.836 423.713 471.071C419.811 471.707 413.64 471.888 407.833 471.616C402.569 471.344 393.404 470.073 387.415 468.803C379.339 467.078 374.348 465.354 367.905 462.178C363.186 459.819 359.647 457.731 360.192 457.641C360.736 457.459 366 458.548 371.989 460C377.978 461.543 385.963 463.63 389.684 464.628C393.767 465.808 400.573 466.806 406.471 467.078C412.824 467.441 418.813 467.169 422.805 466.443C426.344 465.808 432.606 464.175 436.871 462.813L437.15 462.718C441.344 461.291 445.981 459.712 447.579 459.002C449.756 458.094 450.482 457.278 450.482 455.554C450.482 454.283 449.575 452.377 448.667 451.288C447.669 450.109 446.399 449.201 445.945 449.201C445.491 449.201 445.038 449.473 445.038 449.927C445.128 450.29 442.769 451.833 439.865 453.466C436.961 455.009 430.7 457.368 425.981 458.639C421.263 459.909 413.731 461.361 409.194 461.997C404.657 462.541 398.577 462.813 395.582 462.45C392.588 462.178 385.872 461.089 380.609 460.091C375.346 459.093 368.631 457.55 365.637 456.643C362.642 455.644 356.925 453.103 345.673 446.932H332.969C325.981 447.023 315.546 447.477 309.829 448.021C304.112 448.566 299.212 448.929 298.94 448.657C298.667 448.475 299.303 447.658 300.301 446.932C301.116 446.332 301.546 446.015 301.494 445.839C301.437 445.642 300.781 445.619 299.393 445.571C297.941 445.571 290.954 446.66 271.263 450.472L247.215 448.929C233.967 448.021 222.442 447.386 221.626 447.386C220.537 447.386 219.992 448.112 219.992 449.655C219.992 450.925 219.811 451.924 219.538 451.924C219.266 451.924 216.725 451.016 213.912 449.927C209.194 448.112 207.016 447.931 193.676 447.931C185.419 447.931 171.807 448.384 163.277 448.929C153.204 449.655 142.315 449.746 131.97 449.201C123.259 448.747 113.186 448.203 103.386 447.386L114.729 450.562C120.99 452.287 132.787 454.737 141.045 456.098C149.303 457.368 156.834 458.548 157.832 458.73C158.19 458.762 159.232 458.864 160.731 459.011L160.741 459.012C163.432 459.276 167.59 459.683 171.898 460.091C180.791 460.908 190.5 461.089 207.288 460.454C219.992 460.091 238.413 459.728 248.123 459.728C262.007 459.637 267.27 460 272.624 461.271C276.344 462.087 279.883 463.176 280.519 463.539C281.154 463.902 281.335 465.173 280.972 466.716C280.519 468.53 279.974 469.075 278.976 468.621C278.514 468.39 277.171 467.866 275.554 467.234L275.553 467.234L275.547 467.231L275.545 467.23L275.535 467.227C274.615 466.867 273.608 466.474 272.624 466.08C268.359 464.447 265.455 464.175 252.206 464.084C243.676 463.993 229.43 464.628 220.446 465.354C206.562 466.534 201.027 466.625 183.695 465.717C172.442 465.082 158.377 463.993 152.388 463.176C146.399 462.45 137.415 460.817 132.424 459.546C127.433 458.276 119.629 455.735 115.183 454.011C110.736 452.196 105.019 450.199 102.479 449.564C100.028 448.929 93.8578 447.931 88.8669 447.295C83.876 446.751 75.709 445.481 70.7181 444.482C63.1863 442.94 59.0121 442.758 46.0357 442.94C37.5057 443.121 30.9721 443.03 31.5166 442.758C32.1518 442.486 35.8723 441.669 39.8651 440.943C43.8578 440.217 51.5711 439.673 57.1064 439.673C62.6418 439.673 68.7217 440.036 70.7181 440.399C73.1379 440.943 74.0454 440.913 73.4404 440.308C72.8959 439.763 69.9014 438.493 66.6346 437.404C63.3678 436.315 56.2898 434.863 50.7544 434.137C45.3097 433.411 37.6872 432.685 33.9667 432.594C30.2462 432.504 23.7126 432.685 11.7344 433.683L17.179 432.322C20.1736 431.596 27.3424 430.779 33.0592 430.507C41.6799 430.053 44.9467 430.235 52.1155 431.778C56.8342 432.867 64.6382 434.772 69.3569 436.043C74.0756 437.313 81.4259 438.947 85.6909 439.673C89.9558 440.489 100.119 441.941 108.377 442.94C116.635 443.938 131.335 445.027 141.045 445.299C150.754 445.571 161.19 445.571 164.185 445.208C167.179 444.845 169.448 444.392 169.175 444.21C168.903 443.938 162.188 443.393 154.203 442.849C146.217 442.395 132.878 441.488 124.529 440.852L124.388 440.841C109.375 439.673 109.283 439.666 108.921 437.404C108.649 436.134 106.925 427.422 105.11 417.893C103.295 408.455 101.39 400.379 100.845 400.016C100.21 399.653 98.5765 399.29 97.0339 399.29C94.9468 399.199 92.6782 397.656 80.9722 387.039L82.0611 383.409C82.9685 380.414 83.3315 380.051 83.9667 381.413C84.4204 382.229 86.5076 383.863 88.6854 384.861C90.7725 385.95 93.7671 387.221 95.219 387.674C96.7616 388.128 103.295 389.308 109.738 390.215C116.272 391.123 128.704 391.939 137.415 392.121C146.126 392.302 163.912 392.393 176.889 392.212C189.865 392.121 205.382 391.576 211.372 391.032C217.361 390.578 228.613 389.398 236.326 388.4C244.039 387.402 254.293 385.859 259.012 384.861C263.731 383.863 270.9 382.229 274.892 381.14C278.885 379.961 285.237 377.874 288.958 376.422C292.678 374.97 299.03 372.066 303.023 370.069C307.016 368.073 313.096 364.534 316.635 362.265C320.174 359.996 327.07 354.007 332.061 349.016C338.958 342.028 342.225 337.854 345.673 331.774C348.214 327.327 351.299 322.517 352.751 321.065C354.112 319.704 355.201 318.161 355.201 317.617C355.201 317.163 353.658 316.528 351.843 316.256C349.393 315.984 347.941 315.076 345.038 310.811L341.952 313.987C340.319 315.711 338.686 316.982 338.504 316.71C338.232 316.437 336.78 313.533 335.328 310.176L335.233 309.97C332.514 304.094 332.473 304.005 328.885 304.005C326.254 304.005 325.074 304.459 324.711 305.638C324.348 306.455 324.348 309.631 324.711 312.626C325.255 317.799 325.528 318.343 331.154 324.242C336.326 329.596 337.324 330.231 339.593 329.777C341.045 329.414 342.315 329.596 342.769 330.231C343.132 330.866 342.225 331.411 340.047 331.774C336.961 332.227 336.235 331.955 329.883 325.331L324.802 329.414C320.174 333.135 319.72 333.77 319.811 337.128C319.811 339.124 319.992 341.665 320.264 342.845C320.627 344.569 321.263 344.841 325.255 344.841C328.431 344.841 329.702 345.204 329.52 346.021C329.339 346.566 326.798 349.106 323.803 351.557C320.9 354.007 314.548 358.544 309.829 361.63C305.11 364.715 297.941 368.889 293.949 370.886C289.956 372.882 283.422 375.605 279.43 376.875C275.437 378.146 267.088 380.233 260.827 381.503C254.566 382.683 243.586 384.317 236.326 385.133L235.114 385.255C227.908 385.976 217.943 386.973 212.279 387.402C206.29 387.946 190.137 388.854 176.435 389.398C162.37 390.034 143.949 390.215 134.239 389.852C124.802 389.489 114.094 388.854 110.646 388.309C107.197 387.856 101.843 386.857 98.8488 386.041C95.8542 385.315 92.0429 383.954 90.3188 383.137C88.5947 382.229 86.7798 380.505 86.2353 379.053C85.6909 377.692 84.8742 376.875 84.4204 377.238C83.9667 377.601 84.4204 376.694 85.4186 375.242C86.4168 373.79 87.8687 372.066 88.5039 371.43C89.2299 370.886 93.6763 368.708 98.395 366.621C103.93 364.171 107.832 362.991 109.284 363.263C110.555 363.535 114.457 364.806 117.905 366.167C121.353 367.528 126.163 368.708 128.431 368.708C131.698 368.889 133.422 368.345 140.41 363.445L155.473 363.263C163.731 363.082 172.442 362.991 174.892 362.991C177.252 362.991 179.157 362.719 179.067 362.356C179.067 361.902 176.707 359.905 173.894 357.818C170.264 355.187 166.544 353.553 161.462 352.192C156.834 350.921 154.021 350.558 153.749 351.194C153.477 351.738 150.754 351.284 146.489 349.923C142.769 348.743 138.595 347.473 137.234 347.201C135.6 346.838 134.693 346.112 134.693 345.114C134.693 344.206 135.237 341.665 135.963 339.396C136.598 337.128 137.415 330.14 138.322 312.172H135.419C133.867 312.172 126.259 311.763 118.269 311.333L116.998 311.265C108.558 310.72 101.48 310.539 101.39 310.811C101.208 311.083 103.658 315.621 106.653 321.065C109.738 326.42 113.912 333.226 116.09 336.22C118.177 339.215 123.531 345.114 127.978 349.379C134.239 355.277 135.056 356.276 131.607 353.916C129.157 352.192 123.803 347.473 119.72 343.48C115.727 339.487 111.008 334.224 109.284 331.683C107.56 329.233 104.203 323.516 101.843 318.978C98.1228 311.991 97.4876 311.174 97.4876 313.533C97.3969 314.985 96.5802 325.24 93.9486 356.185L94.3116 339.396C94.5838 330.14 94.7653 319.16 94.7653 314.895C94.7653 310.629 95.0375 307.453 95.4005 307.816C95.7635 308.27 96.4894 308.179 97.0339 307.816C97.5783 307.453 106.743 307.363 117.451 307.635C128.159 307.998 137.506 308.089 138.141 307.907C138.867 307.726 139.23 305.457 139.23 300.375C139.23 296.382 138.958 293.115 138.595 293.115C138.141 293.024 136.326 295.928 134.511 299.467C132.606 302.916 130.791 306.001 130.428 306.274C129.974 306.455 127.978 305.275 125.891 303.551C122.987 301.192 120.809 300.193 117.27 299.83C113.64 299.377 110.192 299.83 103.386 301.555C98.395 302.825 93.4949 304.096 92.4967 304.459C91.4985 304.731 92.4967 304.096 94.7653 303.097C97.0339 302.008 101.117 300.647 103.84 299.921C106.562 299.195 111.281 298.56 119.72 298.469L106.108 285.855L126.072 286.4C137.052 286.763 147.578 286.763 149.484 286.4C151.299 286.128 152.842 285.492 152.842 284.948C152.842 284.494 151.208 284.04 145.582 284.04V273.604L150.301 274.24C152.932 274.603 158.468 275.238 162.551 275.601C169.901 276.327 169.992 276.327 170.809 274.058C171.353 272.788 172.624 270.882 173.803 269.884C174.983 268.795 177.615 267.071 179.611 266.072C181.607 265.074 186.961 263.259 191.408 261.989C195.854 260.718 202.569 259.085 206.199 258.268C209.738 257.451 218.177 256.272 224.802 255.546C231.335 254.82 242.95 254.003 264.003 253.186L263.64 243.022C263.459 237.396 263.277 232.677 263.186 232.586C263.186 232.496 253.295 231.588 241.317 230.499C229.339 229.501 218.54 228.503 217.27 228.231C215.999 227.958 206.653 227.142 196.399 226.416C181.335 225.236 177.705 225.236 177.161 226.143C176.798 226.779 176.435 227.777 176.435 228.231C176.424 228.297 176.403 228.425 176.374 228.607C176.163 229.917 175.496 234.047 174.62 238.667C173.713 243.93 172.987 246.743 172.896 245.019C172.805 241.843 172.805 241.843 167.633 241.207C164.729 240.844 151.48 239.574 138.141 238.485C124.802 237.305 113.731 236.579 113.368 236.852C113.096 237.124 112.46 240.572 112.097 244.565C111.644 248.558 111.008 253.368 110.736 255.273C110.283 258.177 110.01 258.45 108.74 257.542C107.651 256.725 105.382 256.544 101.208 256.907C97.9413 257.179 93.2226 258.359 90.6818 259.357L90.0154 259.643C87.9508 260.529 87.0224 260.928 86.9543 260.813C86.8986 260.72 87.4174 260.284 88.36 259.492L88.4132 259.448C89.6836 258.45 92.3152 257.179 94.3116 256.635C96.3079 256.09 100.573 255.546 109.738 255.364L110.373 250.464C110.645 247.741 110.918 243.113 111.008 240.3C111.099 237.396 111.281 234.401 111.553 233.675C111.825 232.949 112.642 232.314 113.368 232.314C114.457 232.314 114.638 231.588 114.185 228.956C113.822 227.051 113.005 224.873 112.37 224.147C111.281 222.967 109.647 222.876 101.39 223.693C92.2244 224.601 91.68 224.691 91.0448 226.869C90.6818 228.14 89.6836 233.948 88.7762 239.755C87.778 245.563 86.9613 250.282 86.7798 250.191C86.689 250.101 87.2335 243.658 87.9595 235.944C88.6854 228.231 89.7743 220.245 90.3188 218.248C91.317 214.709 91.4077 214.709 92.1337 216.887C92.6782 218.43 92.5874 219.519 91.8615 220.335C91.2262 220.971 90.8633 221.697 91.1355 221.878C91.4077 222.15 96.3079 221.878 102.025 221.424C107.742 220.88 113.005 220.245 113.64 220.063C114.366 219.791 114.729 220.517 114.729 222.332C114.729 223.875 115.183 225.054 115.909 225.054C116.453 225.054 121.081 224.147 126.072 223.058C133.604 221.424 138.595 221.061 155.564 220.88C168.087 220.698 176.163 220.335 176.435 219.791C176.707 219.156 192.86 218.521 262.642 217.341V212.168C262.642 207.449 262.46 206.814 260.646 206.451C259.466 206.179 254.293 205.997 249.03 205.997C243.767 205.997 234.783 206.542 229.067 207.268C223.35 207.994 211.734 210.081 203.205 211.805C194.675 213.62 186.961 215.344 185.963 215.617C184.511 215.98 184.42 215.889 185.509 215.163C186.235 214.618 189.502 213.348 192.769 212.35C196.036 211.442 202.932 209.809 208.195 208.811C213.459 207.812 221.989 206.542 227.252 206.088C232.515 205.544 242.587 204.818 262.642 203.729L262.551 193.746C262.551 188.302 262.188 182.947 261.825 181.949C261.19 180.406 258.195 179.499 242.587 176.232C228.341 173.237 223.168 171.785 219.992 169.789C216.544 167.611 213.912 167.067 202.297 165.615C190.863 164.163 188.413 163.618 187.143 162.075C186.235 160.986 185.509 160.533 185.509 161.077C185.509 161.622 184.058 171.876 182.333 184.036C180.609 196.106 179.157 207.086 179.157 208.538C179.157 210.172 178.885 210.716 178.25 210.081C177.615 209.446 177.705 205.816 178.794 198.284C180.065 188.483 180.065 187.122 178.794 184.672C178.068 183.22 177.342 180.951 177.161 179.68C177.103 179.195 177.057 178.813 176.883 178.504C176.245 177.366 173.879 177.198 162.823 176.414C155.11 175.869 148.486 175.688 148.123 175.96C147.851 176.232 147.306 183.038 146.943 191.024C146.58 199.01 146.126 205.725 145.945 205.997C145.673 206.27 145.582 199.554 145.582 175.597L138.141 174.871C133.967 174.508 128.25 173.873 125.437 173.51C121.263 172.965 120.174 173.147 119.811 174.236C119.538 174.962 118.359 185.398 117.088 197.376C115.001 218.611 114.91 218.793 115.364 206.451C115.636 199.463 116.09 189.118 116.453 183.492C116.907 174.326 116.816 173.056 115.364 171.695C114.457 170.878 113.731 169.88 113.822 169.517C113.822 169.063 126.616 168.972 142.224 169.245C157.742 169.517 171.898 169.97 176.435 170.606V159.716L179.793 159.262C181.698 159.081 198.94 158.627 218.177 158.355C237.415 158.083 254.203 157.629 255.655 157.357C257.742 157.084 258.014 156.631 257.651 154.543C257.582 153.993 257.474 153.221 257.352 152.346C257.152 150.912 256.913 149.202 256.744 147.737C256.29 143.563 256.381 143.381 258.558 143.381C260.373 143.381 260.736 143.018 260.646 141.385C260.373 139.389 260.101 139.298 251.299 139.479C245.401 139.57 237.415 140.568 228.613 142.383C221.172 143.926 211.734 146.195 207.742 147.465C203.749 148.736 199.121 149.915 197.578 150.187C195.945 150.46 194.584 150.46 194.584 150.187C194.584 149.915 197.76 148.736 201.662 147.556C205.473 146.285 212.551 144.289 217.27 143.018C221.989 141.748 230.337 139.842 235.872 138.753C241.408 137.664 249.756 136.485 254.475 136.122C259.194 135.759 266.544 135.668 270.809 135.849ZM359.012 328.416L359.284 333.316C363.549 329.868 365.455 326.783 366.362 324.332C367.179 321.882 367.905 319.613 367.905 319.25C367.905 318.797 366.998 318.524 365.818 318.524C364.638 318.524 362.551 319.613 361.281 321.065C359.103 323.243 358.831 324.151 359.012 328.416ZM350.755 368.98C350.029 369.888 350.029 371.521 350.664 374.334C351.208 376.603 352.116 378.418 352.66 378.418C353.295 378.418 354.384 376.512 355.11 374.153L355.198 373.816L355.242 373.648L355.291 373.461L355.388 373.09L355.523 372.574C356.027 370.659 356.491 368.896 356.562 368.254C356.744 367.347 356.562 366.712 356.29 366.712C355.927 366.802 354.747 367.075 353.658 367.256C352.569 367.438 351.208 368.254 350.755 368.98ZM111.099 427.966C111.099 428.964 112.642 429.418 117.723 429.781C121.262 430.053 135.509 430.688 149.211 431.142C162.914 431.687 174.348 431.868 174.62 431.687C174.892 431.414 170.99 430.961 165.999 430.688C161.008 430.326 147.85 429.327 136.78 428.329C125.618 427.422 115.364 426.605 113.821 426.605C112.006 426.605 111.099 427.059 111.099 427.966ZM112.188 434.5C112.46 435.77 113.912 436.133 121.988 436.587C127.251 436.95 137.415 437.131 144.674 437.131C155.927 437.131 156.925 437.041 151.48 436.405C148.032 436.042 138.231 435.044 129.701 434.318C121.262 433.502 113.731 432.866 113.095 432.866C112.369 432.866 112.006 433.592 112.188 434.409V434.5ZM109.103 421.705C108.74 421.069 108.377 420.343 108.377 419.98V419.89C108.377 419.527 109.466 419.254 110.827 419.254C112.279 419.254 120.083 419.89 128.341 420.616C136.598 421.342 148.576 422.158 155.11 422.521C161.644 422.793 167.088 423.338 167.361 423.61C167.633 423.792 154.747 423.792 138.776 423.429C117.996 422.975 109.556 422.43 109.103 421.705ZM108.558 415.443C108.831 416.895 111.281 416.986 142.406 417.076C160.918 417.167 174.711 417.076 173.259 416.895C171.93 416.729 159.953 416.106 145.892 415.375L145.887 415.375L145.883 415.375L145.868 415.374L145.862 415.374L141.952 415.171C126.253 414.445 112.188 413.81 110.827 413.81C108.831 413.81 108.286 414.173 108.558 415.352V415.443ZM106.38 408.909C106.017 408.365 106.199 407.639 106.834 407.276C107.469 406.822 108.921 406.731 110.192 407.003C111.462 407.185 125.89 407.82 142.406 408.455C158.831 409 177.705 409.816 184.148 410.179C190.591 410.542 175.89 410.633 151.48 410.361C120.627 410.089 106.834 409.635 106.38 408.909ZM104.929 401.649C104.838 402.103 105.11 403.01 105.473 403.646C106.018 404.553 116.725 404.644 161.916 404.099L217.724 403.373C166.362 402.557 141.045 401.922 128.25 401.559C114.91 401.196 104.929 401.196 104.929 401.649ZM149.847 295.838C150.663 295.838 151.026 297.017 151.026 299.74C150.936 301.827 150.21 311.537 149.393 321.428C148.576 331.229 147.578 339.578 147.215 340.032C146.761 340.395 146.217 340.395 145.854 340.032C145.4 339.578 145.945 329.505 146.852 317.526C148.213 300.919 148.849 295.838 149.847 295.838ZM383.694 294.023C384.057 294.023 384.965 295.747 385.691 297.925C386.417 300.012 386.961 302.008 386.961 302.462C386.961 302.825 384.693 304.549 381.97 306.274C379.248 307.998 376.798 309.359 376.526 309.268C376.253 309.087 377.615 305.638 379.429 301.555C381.335 297.471 383.241 294.113 383.694 294.023ZM278.794 287.217C279.248 287.761 281.063 289.939 282.878 292.208C284.693 294.476 286.235 296.564 286.235 297.017C286.235 297.38 284.42 296.382 282.152 294.93C278.703 292.661 278.068 291.754 278.068 289.304C278.068 287.58 278.34 286.672 278.794 287.217ZM170.264 285.765C173.712 286.763 178.25 288.941 187.778 295.656L187.869 315.348L193.585 328.96C196.761 336.493 199.665 343.299 200.119 344.206C200.573 345.023 201.117 345.658 201.389 345.567C201.571 345.386 200.845 342.663 199.665 339.396C198.395 336.13 196.126 330.049 194.584 325.784C192.224 319.613 191.589 316.074 191.045 308.27C190.591 299.377 190.682 298.56 192.134 298.56C192.95 298.56 193.858 298.923 194.13 299.467C194.402 300.012 199.756 303.279 206.199 306.818C212.551 310.357 218.994 314.169 220.446 315.348C222.714 316.982 223.803 319.341 226.798 328.87C228.794 335.222 230.518 340.032 230.7 339.669C230.881 339.306 230.337 334.859 229.52 329.868C228.794 324.877 228.25 320.702 228.34 320.612C228.522 320.521 233.604 324.151 239.683 328.779C245.763 333.316 252.932 338.852 255.745 341.03C260.192 344.388 261.099 344.751 263.368 344.025C264.729 343.48 266.09 343.389 266.544 343.752C266.907 344.115 267.179 346.747 267.179 354.824L264.275 354.279C262.642 353.916 255.019 351.647 247.487 349.288C239.865 346.838 233.422 344.841 233.15 344.841C232.878 344.841 232.696 345.567 232.696 346.475C232.696 347.745 235.146 348.653 246.489 351.466C248.812 352.046 251.151 352.627 253.335 353.169C258.319 354.406 262.496 355.443 263.821 355.822C266.271 356.457 267.179 357.092 267.179 358.453C267.179 359.815 266.544 360.268 264.729 360.268C263.277 360.178 260.555 359.542 258.558 358.816C256.562 358 251.662 356.639 247.669 355.731C243.676 354.824 238.141 353.825 235.418 353.553L235.418 353.553C232.696 353.281 228.159 352.827 220.446 351.829L224.983 350.649C227.524 350.014 229.792 349.469 230.246 349.379C230.609 349.379 230.881 348.108 230.881 346.656C230.881 344.932 230.518 344.025 229.792 344.297C229.157 344.478 220.99 347.745 211.644 351.557C202.206 355.368 194.039 358.453 193.495 358.453C192.859 358.544 190.228 356.366 187.687 353.735C185.237 351.103 181.426 346.112 179.339 342.573C177.251 339.033 174.711 333.952 173.622 331.229C172.624 328.507 170.718 322.064 169.538 316.982C168.359 311.809 166.725 302.462 165.999 296.11C165.273 289.667 164.638 284.403 164.547 284.313C164.547 284.222 167.088 284.857 170.264 285.765ZM265.183 289.031C265.364 291.209 264.82 292.298 262.46 294.204C260.827 295.475 259.375 296.382 259.284 296.201C259.103 296.019 260.373 293.66 262.007 291.119C264.91 286.309 264.91 286.309 265.183 289.031ZM274.892 276.599C274.711 273.967 274.348 268.432 274.257 264.257L273.985 256.725L276.707 256.997C279.066 257.27 279.429 257.723 279.974 260.9C280.337 262.896 280.791 268.341 281.244 281.318H278.341C275.437 281.318 275.346 281.227 274.892 276.599ZM197.76 263.985C199.212 262.805 201.48 261.626 202.751 261.263C204.021 260.9 205.382 260.537 205.927 260.537C206.471 260.537 204.747 261.626 202.115 263.168C199.484 264.62 196.308 267.161 195.037 268.795C193.858 270.428 192.769 271.426 192.769 270.882C192.86 270.428 193.313 269.067 193.948 267.978C194.584 266.889 196.308 265.074 197.76 263.985ZM232.696 257.633C229.429 257.996 225.618 258.994 224.076 259.901C222.624 260.809 220.446 262.624 219.357 263.985C217.996 265.619 217.36 267.615 217.36 270.156C217.27 272.334 217.905 275.238 218.631 276.781L219.992 279.503C246.399 280.229 256.38 280.592 259.284 280.864L264.457 281.318L264.638 256.816C244.493 256.997 235.963 257.36 232.696 257.633ZM273.259 247.106C272.896 243.204 272.624 238.304 272.624 236.126C272.624 232.405 272.714 232.314 278.341 232.314L278.704 239.755C278.885 243.93 279.248 248.83 279.43 250.645C279.883 254.003 279.793 254.094 273.985 254.094L273.259 247.106ZM295.763 234.129C295.4 235.49 296.399 241.843 298.395 250.282L301.662 264.076H308.014C300.301 240.481 297.669 233.312 297.215 232.768C296.671 232.223 296.126 232.677 295.763 234.129ZM327.161 248.195C327.07 248.467 332.606 256.907 339.321 267.071C351.027 284.676 351.753 285.583 357.197 288.759C360.373 290.574 364.82 294.023 367.179 296.473C369.629 298.832 371.535 301.101 371.535 301.555C371.535 301.918 369.085 300.647 366.09 298.832L360.555 295.384C355.745 300.284 354.203 301.555 354.021 301.282C353.942 301.164 353.283 300.278 352.251 298.89L352.247 298.885C350.9 297.073 348.918 294.408 346.762 291.482L339.774 282.225C333.059 283.133 331.063 283.405 330.881 283.496C330.791 283.587 335.056 290.12 340.41 298.106C349.575 311.537 350.482 312.626 354.021 313.715L357.923 314.895C367.451 306.637 371.172 304.005 372.442 303.733C374.076 303.37 375.437 301.736 377.161 298.197L379.702 293.115C373.713 287.58 371.535 285.946 371.081 285.946C370.537 285.946 369.266 286.763 368.177 287.943C366.998 289.031 365.999 289.757 365.818 289.485C365.727 289.213 363.912 287.126 361.734 284.676C358.649 281.136 357.923 279.775 357.923 276.781C357.923 273.514 357.379 272.606 351.753 267.343C348.395 264.076 343.223 259.538 340.228 257.27C337.234 254.91 333.059 251.825 330.972 250.282C328.885 248.83 327.161 247.923 327.161 248.195ZM137.869 223.693C133.876 224.328 128.34 225.689 125.618 226.688C122.896 227.686 120.083 229.228 119.448 229.954C118.268 231.225 120.809 231.406 145.945 231.406H173.713C174.529 228.23 174.62 226.325 174.438 225.054L174.166 222.786C151.389 222.513 142.043 222.967 137.869 223.693ZM271.262 214.8C270.99 213.711 270.809 211.714 270.809 210.353V210.262C270.809 208.084 271.172 207.812 273.803 207.812C275.346 207.812 278.25 208.175 280.155 208.538C283.422 209.173 283.513 209.264 283.513 216.887H277.615C272.261 216.887 271.716 216.705 271.262 214.8ZM266.635 139.025C266.453 139.388 266.725 140.75 267.179 142.02C267.724 143.381 268.903 144.379 270.174 144.561C271.988 144.742 272.17 145.287 272.442 150.913L272.624 156.993C295.491 156.085 302.206 155.813 302.297 155.722C302.388 155.722 302.206 153.272 301.843 150.368L301.208 145.105C294.221 142.474 288.867 141.113 284.874 140.296C280.881 139.57 275.255 138.753 272.261 138.572C269.357 138.39 266.816 138.572 266.635 139.025Z" fill="#033165"></path><path fill-rule="evenodd" clip-rule="evenodd" d="M258.74 5.71711C258.377 0.816729 258.105 0 256.653 0C255.655 0 254.112 0.725982 253.295 1.63346C252.388 2.45019 250.754 3.17617 249.665 3.26692C248.123 3.35767 247.76 3.8114 248.032 5.53561C248.123 6.71533 248.758 7.9858 249.393 8.34879C249.938 8.71178 251.753 8.80253 253.386 8.62103L256.29 8.16729V18.1495H206.38C206.925 22.0517 206.562 26.7706 205.836 31.308C205.557 33.3025 205.278 35.1743 205.052 36.6844L205.052 36.6852C204.765 38.61 204.566 39.947 204.566 40.2012C204.566 40.5642 203.567 40.8365 202.297 40.8365C201.027 40.8365 200.028 40.7457 200.028 40.655C199.963 40.5247 199.851 38.5706 199.693 35.7997C199.63 34.7107 199.561 33.4956 199.484 32.2154C199.302 27.6781 198.758 22.5962 198.486 20.872C198.032 18.5125 197.578 20.5997 196.943 29.0393L195.945 40.3827C142.769 40.3827 142.043 40.4735 141.589 42.1977C141.408 43.1959 140.863 46.9166 140.5 50.365C140.272 52.5875 140.009 54.5953 139.844 55.849C139.746 56.5917 139.684 57.0698 139.684 57.1711C139.593 57.4433 139.23 59.8935 138.867 62.6159L138.141 67.607C137.972 67.607 137.805 67.6073 137.64 67.6077C137.989 67.8601 137.521 67.8638 136.152 67.6189C132.377 67.6666 130.076 67.8559 128.632 68.1507C128.358 68.2252 128.09 68.29 127.834 68.3452C126.344 68.689 125.783 68.8076 125.986 68.5816C125.806 68.577 125.679 68.5546 125.618 68.5144C125.346 68.333 126.617 67.6977 128.341 67.244C130.065 66.7903 132.333 66.4273 133.332 66.4273C133.817 66.3832 134.453 66.4679 135.093 66.6187C136.487 66.4255 137.415 66.1088 137.415 65.7921C137.415 65.3383 136.417 63.3419 135.146 61.5269C133.513 59.0768 130.972 57.1711 126.344 54.9024C120.627 52.0892 118.812 51.7262 113.368 51.7262C109.919 51.7262 105.473 52.1799 103.658 52.6337C101.752 53.1782 98.9394 54.6301 97.306 56.0821C95.7634 57.4433 93.767 60.1657 92.8596 62.1622C91.7706 64.5216 91.4984 66.6996 91.8614 68.4238C92.4058 70.7832 92.3151 71.0555 90.6817 70.511C89.6835 70.148 87.2334 69.785 85.237 69.6942C83.1499 69.6035 80.4276 70.2387 78.885 71.1462C77.4331 71.9629 75.4367 73.8686 74.62 75.3206C73.7125 76.8633 72.9866 79.132 72.9866 80.584C72.9866 82.1267 72.0791 83.6694 70.6272 84.8491C68.9031 86.1196 68.1771 87.753 67.8142 90.7477C67.3605 94.2869 67.0882 94.8314 65.3641 94.4684C64.3659 94.2869 62.0065 94.4684 60.2824 94.7406C58.1045 95.1036 56.4711 96.1926 55.11 98.2798C53.9303 99.8225 53.0229 102.273 53.0229 103.725C53.0229 105.267 54.0211 107.082 55.6545 108.716L58.3768 111.166C54.5655 115.703 53.8396 117.428 54.0211 118.97C54.1571 119.855 54.2421 120.407 54.0087 120.729C53.6192 121.266 52.3434 121.16 48.9394 120.876C43.8577 120.422 43.3132 120.604 40.1372 123.326C37.5056 125.413 36.0537 126.049 34.2388 125.686C32.7869 125.413 28.0682 125.595 23.531 126.049C19.0846 126.502 14.3659 127.41 13.0954 128.045C11.825 128.771 10.1916 129.406 9.46568 129.588C9.29491 129.609 9.03375 129.645 8.70701 129.691L8.70259 129.692C7.63991 129.84 5.8872 130.084 4.29326 130.223C2.1154 130.495 0.209777 130.949 0.0282892 131.403C-0.243943 131.766 1.4802 132.31 3.83954 132.673C6.19889 133.036 29.5201 135.033 55.7452 137.12C81.9703 139.207 103.749 141.203 104.112 141.476C104.475 141.748 104.475 144.561 104.112 147.556C103.749 150.641 103.658 153.001 104.112 152.819C104.475 152.638 105.201 150.278 105.745 147.737C106.199 145.106 107.016 142.565 107.469 142.02C107.923 141.476 108.74 138.027 109.194 134.307C109.738 130.586 110.101 126.684 110.192 125.686C110.192 123.961 110.555 123.871 120.809 124.597C121.624 124.659 122.42 124.72 123.187 124.779L123.188 124.779C127.972 125.146 131.632 125.426 131.789 125.504C131.88 125.595 131.335 127.954 130.609 130.677C129.883 133.399 128.25 139.388 126.979 143.835C126.583 145.33 126.196 146.764 125.858 148.019L125.858 148.02C125.19 150.496 124.711 152.275 124.711 152.456C124.711 152.728 125.074 152.547 125.618 152.002C126.072 151.458 128.341 144.561 130.7 136.575L130.702 136.567L130.703 136.565C132.97 128.582 135.237 120.603 135.691 118.88C136.145 117.155 136.507 111.347 136.507 105.993C136.507 96.4648 136.598 96.1926 138.595 96.2833C139.684 96.2833 143.858 96.8278 147.851 97.3723L155.11 98.4613C154.747 115.34 154.475 125.323 154.203 131.584C154.021 138.027 154.112 141.929 154.566 140.659C154.929 139.388 155.836 129.678 156.562 118.97C157.288 108.353 158.014 99.5502 158.286 99.3687C158.558 99.1872 165.636 100.095 174.166 101.365C182.696 102.545 189.956 103.815 190.319 104.178C190.682 104.541 190.591 110.712 190.047 117.972C189.593 125.232 188.867 133.49 188.413 136.394C188.05 139.661 188.141 141.566 188.685 141.566C189.23 141.566 189.865 138.209 190.228 134.125C190.431 131.794 190.973 126.407 191.633 119.845C192.156 114.655 192.752 108.729 193.313 102.999C194.674 90.0217 196.126 78.9505 196.58 78.4968C197.125 77.8615 203.749 78.3153 216.181 79.6765C226.526 80.8562 239.23 82.3989 244.493 83.1249C249.756 83.8509 254.838 84.6676 255.836 84.9398C256.669 85.1671 257.945 85.3944 258.925 85.5689L258.927 85.5692C259.12 85.6036 259.301 85.6359 259.466 85.6658C261.099 85.9381 261.371 86.9363 262.007 98.0983C262.37 104.814 263.005 114.161 263.368 118.88C264.003 126.865 264.094 125.958 264.729 106.629C265.092 95.1036 265.636 85.5751 265.909 85.3028C266.181 85.0306 273.44 83.9416 281.97 82.8527C296.58 81.0377 297.76 81.0377 300.754 82.3989C302.479 83.2157 308.014 86.1196 313.005 88.9328C313.669 89.2951 314.345 89.6638 315.021 90.0332L315.024 90.0349C319.431 92.4406 323.888 94.8737 325.618 95.7388C327.524 96.7371 329.43 98.3705 329.793 99.3687C330.246 100.367 331.607 107.082 332.969 114.342C334.239 121.602 336.417 131.221 337.778 135.849C339.139 140.477 340.319 144.107 340.5 144.017C340.591 143.926 339.774 138.935 338.504 132.945C337.234 126.956 335.419 115.703 334.33 107.99C333.241 100.276 331.789 90.3847 331.063 85.9381C329.974 79.0413 329.974 77.7708 331.154 75.5928L332.515 73.0519C303.295 72.2352 287.596 71.8722 278.794 71.7814L262.642 71.6907C262.279 65.8828 262.642 64.2494 263.368 63.9771C264.003 63.7049 264.457 61.9807 264.457 59.8935C264.457 57.2618 264.094 56.2636 263.096 56.2636C262.188 56.2636 261.734 55.2654 261.734 53.0874V49.9112C268.449 49.9112 274.076 50.365 278.522 50.9095C283.059 51.4539 289.593 52.7244 293.041 53.7226C296.58 54.7209 301.662 56.6266 304.384 57.897C307.107 59.1675 311.371 61.7084 313.731 63.4326C316.09 65.2476 318.268 66.4273 318.45 66.0643C318.722 65.6106 317.179 64.0679 315.092 62.5252C312.914 60.9825 310.192 59.2583 308.921 58.7138C307.651 58.0785 306.471 57.4433 306.199 57.0803C305.927 56.8081 302.116 55.0839 297.578 53.1782C293.132 51.3632 286.417 49.276 282.878 48.55C279.248 47.824 272.805 47.1888 268.54 47.1888H260.827C260.827 37.0251 260.645 32.7599 260.283 31.308L259.738 28.5855C274.983 27.4966 285.782 26.5891 293.495 25.8631C301.208 25.1371 307.651 24.5926 307.742 24.7741C307.832 24.8649 309.194 30.8542 310.736 38.114C313.186 49.8205 314.094 52.2707 318.45 60.075C321.172 64.9754 323.622 68.7868 323.894 68.5145C324.166 68.2423 323.077 65.3384 321.444 61.9807C319.901 58.5323 316.907 48.913 314.729 40.3827C311.553 27.6781 311.099 24.8649 312.188 24.3204C312.914 23.8666 313.459 22.7777 313.459 21.7794C313.459 20.7812 313.368 19.8737 313.277 19.783C313.096 19.6923 300.936 19.3293 286.235 19.057L259.466 18.6033C259.23 14.9504 259.071 11.9095 258.939 9.38134L258.938 9.37587L258.937 9.35921C258.866 8.00237 258.803 6.79348 258.74 5.71711ZM203.658 58.0785C204.112 56.3543 205.473 47.7333 206.834 38.84L209.194 22.8684L216.635 23.3222C220.718 23.5037 226.707 24.1389 229.974 24.5926C233.241 25.0464 240.137 25.8631 245.4 26.4076C250.664 26.9521 255.382 27.7688 255.836 28.1318C256.381 28.5855 256.653 30.0375 256.562 31.4895C256.471 32.8507 256.381 37.2066 256.381 41.1087L256.38 41.1185C256.29 48.0056 256.289 48.0965 253.84 48.55C253.026 48.6518 252.012 48.8392 251.054 49.0161C250.304 49.1548 249.588 49.287 249.03 49.3668C247.76 49.639 242.497 51.0002 237.234 52.4522C231.97 53.9041 225.255 56.0821 222.261 57.2618C219.266 58.3508 217.27 59.4397 217.723 59.6212C218.268 59.8027 222.079 58.7138 226.344 57.2618C230.609 55.8098 236.689 53.9949 239.956 53.2689C243.223 52.4522 248.395 51.6354 257.197 50.8187V53.5411C257.197 55.0839 256.834 56.2636 256.29 56.2636C255.745 56.2636 255.564 57.8063 255.927 60.1657C256.199 62.2529 256.834 64.4309 257.288 64.8846C257.742 65.4291 258.105 67.244 258.105 72.1444L226.163 71.5092C208.558 71.237 193.676 71.237 193.223 71.5092C192.678 71.8722 192.224 76.0466 192.315 91.2014L145.582 91.6552L144.221 88.9328C143.495 87.4808 142.86 85.3936 142.86 84.3954C142.86 82.9434 144.221 82.1267 149.03 80.3117C152.388 79.132 159.194 77.4985 164.184 76.7726C169.175 76.0466 175.981 75.2299 179.429 74.9576C182.787 74.6854 185.509 74.0501 185.509 73.5056C185.509 73.0519 183.694 72.5982 181.426 72.5982C179.157 72.5982 171.716 73.5964 164.91 74.8669C158.014 76.1373 150.119 78.2245 147.397 79.495C144.674 80.6747 142.134 81.6729 141.771 81.6729C141.317 81.6729 140.863 80.947 140.682 80.1302C140.5 79.2228 139.865 77.1356 139.321 75.5928C138.504 73.1427 138.595 72.3259 139.684 71.237C140.409 70.511 140.772 69.3313 140.409 68.7868C140.047 68.1515 139.865 66.4273 139.956 64.8846C140.137 63.4326 140.863 58.7138 141.589 54.4486C142.315 50.1835 143.132 46.0998 143.313 45.3739C143.676 44.1941 146.762 44.1941 170.264 45.5554C184.874 46.3721 197.125 46.8258 197.578 46.6443C197.941 46.4628 199.484 46.4628 203.658 47.1888L203.204 54.2671C202.932 59.4397 203.023 60.438 203.658 58.0785ZM316.453 87.1178C310.283 84.5769 305.292 82.2174 305.292 81.8544C305.292 81.4914 308.649 80.6747 312.733 80.1302C316.907 79.5857 321.716 79.2228 323.44 79.2228C326.435 79.3135 326.616 79.5857 327.252 83.3971C327.615 85.6658 328.159 88.479 328.431 89.568C328.704 90.657 328.613 91.6552 328.25 91.6552C327.796 91.6552 322.533 89.568 316.453 87.1178ZM111.916 111.075C112.37 106.629 112.733 101.637 112.642 100.004L112.46 97.0093L133.331 97.463L133.876 118.335L122.714 119.061C116.544 119.424 111.462 119.605 111.281 119.515C111.19 119.424 111.462 115.613 111.916 111.075ZM106.38 102.091C104.928 102.817 103.567 104.541 103.114 105.812C102.66 107.627 102.115 107.99 100.664 107.536C99.6653 107.264 97.2152 106.719 95.2189 106.447C92.4058 106.084 91.3169 106.265 90.0465 107.627C89.139 108.625 88.3223 109.804 88.4131 110.258C88.4131 110.712 89.0483 110.258 89.7742 109.169C90.5909 107.808 92.0428 107.082 93.5855 107.082C95.0374 107.082 97.669 107.627 99.4838 108.443C102.841 109.804 102.932 109.714 103.386 107.808C103.658 106.628 104.566 104.995 105.382 104.178C106.29 103.271 108.195 102.182 109.738 101.728C111.553 101.184 111.855 100.881 110.645 100.821C109.647 100.821 107.742 101.365 106.29 102.091H106.38ZM120.628 73.5056C120.9 72.5074 121.716 71.0554 122.533 70.3295C123.259 69.6035 124.076 68.9682 124.348 68.9682C124.53 68.9682 123.985 70.0572 123.078 71.5092C122.079 72.8704 121.172 74.5946 120.9 75.3206C120.628 76.0466 119.176 76.954 117.542 77.4078C115.637 77.8615 114.003 79.2227 112.279 81.8544C110.192 85.1213 109.92 86.3918 110.373 89.8402C110.736 92.1089 111.19 94.7406 111.462 95.7388C111.825 96.737 111.372 96.1018 110.555 94.3776C109.647 92.3812 109.194 89.6587 109.466 87.1178C109.647 84.8491 110.646 81.9452 111.644 80.584C112.551 79.2227 114.911 77.4985 116.816 76.6818C118.722 75.9558 120.355 74.5039 120.628 73.5056Z" fill="#033165"></path></svg>